<svg width="20" height="18" viewBox="0 0 20 18" fill="none" xmlns="http://www.w3.org/2000/svg">
<path fill-rule="evenodd" clip-rule="evenodd" d="M15.3203 16.9826C15.5887 17.1726 15.9345 17.2201 16.2428 17.1035C16.5512 16.986 16.7778 16.7226 16.8462 16.4035C17.5703 13.0001 19.327 4.38596 19.9862 1.29012C20.0362 1.05679 19.9528 0.81429 19.7695 0.658457C19.5862 0.502624 19.332 0.457623 19.1053 0.54179C15.6112 1.83512 4.85033 5.87262 0.451998 7.50012C0.172832 7.60346 -0.00883512 7.87179 0.000331545 8.16596C0.0103315 8.46096 0.208665 8.71679 0.494498 8.80262C2.467 9.39262 5.05616 10.2135 5.05616 10.2135C5.05616 10.2135 6.26617 13.8676 6.897 15.726C6.97617 15.9593 7.15866 16.1426 7.3995 16.206C7.6395 16.2685 7.89616 16.2026 8.07533 16.0335C9.08867 15.0768 10.6553 13.5976 10.6553 13.5976C10.6553 13.5976 13.632 15.7801 15.3203 16.9826ZM6.14533 9.75179L7.5445 14.3668L7.85533 11.4443C7.85533 11.4443 13.2612 6.56846 16.3428 3.78929C16.4328 3.70762 16.4453 3.57096 16.3703 3.47512C16.2962 3.37929 16.1595 3.35679 16.057 3.42179C12.4853 5.70262 6.14533 9.75179 6.14533 9.75179Z" fill="white"/>
</svg>
