<svg width="20" height="12" viewBox="0 0 20 12" fill="none" xmlns="http://www.w3.org/2000/svg">
<path d="M10.9683 11.8287C11.4758 11.8287 11.6833 11.4903 11.6775 11.0662C11.6517 9.46866 12.2725 8.60866 13.3933 9.7295C14.6333 10.9695 14.89 11.8287 16.3958 11.8287H19.0625C19.7358 11.8287 20.0008 11.612 20.0008 11.272C20.0008 10.5528 18.8167 9.28366 17.8133 8.352C16.4083 7.04783 16.3425 7.017 17.5525 5.44699C19.0533 3.49783 21.0167 1.00033 19.28 1.00033H15.9625C15.3192 1.00033 15.2725 1.36283 15.0433 1.90283C14.2142 3.85866 12.6383 6.39199 12.04 6.00449C11.4142 5.60033 11.7008 3.99949 11.7483 1.62033C11.7608 0.991992 11.7575 0.561159 10.7975 0.337826C10.2733 0.216992 9.76333 0.166992 9.29 0.166992C7.39583 0.166992 6.08917 0.961159 6.83167 1.09949C8.14083 1.34366 8.015 4.17616 7.71 5.39949C7.17833 7.5295 5.18 3.71283 4.3475 1.81199C4.14667 1.35533 4.085 1.00033 3.36833 1.00033H0.655833C0.245833 1.00033 0 1.13366 0 1.43033C0 1.93199 2.46667 7.03033 4.82167 9.572C7.11833 12.0512 9.38833 11.8287 10.9683 11.8287Z" fill="white"/>
</svg>
